<svg xmlns="http://www.w3.org/2000/svg" viewBox="0 0 380.53 58.36"><defs><style>.cls-1{fill:#adadac;}</style></defs><title>daumk</title><g id="Layer_2" data-name="Layer 2"><g id="Layer_1-2" data-name="Layer 1"><path class="cls-1" d="M34.93,0c.15,5.93.39,11.85.42,17.78.06,12.2,0,24.4,0,36.59,0,.82-.07,1.63-.11,2.4-5.86,1-7,.64-8.41-2.79l-3,1.71C15.23,60.78,6.43,58.1,2.41,49A27,27,0,0,1,2.24,27a16.78,16.78,0,0,1,21.15-9.13l1.57.54c0-4.61.17-9-.07-13.37-.14-2.56.72-3.55,3.23-3.77A43.7,43.7,0,0,0,33.92,0Zm-10,25.09c-2.51,0-4.91-.37-7.11.12-1.73.39-3.9,1.47-4.69,2.89a19.53,19.53,0,0,0-.7,18.74c1.89,3.91,10,4,12.24.43a1.85,1.85,0,0,0,.25-1C25,39.49,24.94,32.65,24.94,25.09Z"/><path class="cls-1" d="M198.63,0V34.76l.87.38L214,15.83l7.85,5.3c-3.58,4.54-6.92,8.92-10.43,13.16-1.25,1.51-1.3,2.5,0,4,4,4.53,7.8,9.19,11.86,14l-7.84,6.06L199.61,39.2l-.67.12V56.93H188.72V2.07L197.62,0Z"/><path class="cls-1" d="M276.44,0q.1,17.17.22,34.34c0,.14.14.28.52,1l14.68-19.49L299.6,21c-1.13,1.54-2.16,3-3.26,4.43-2.42,3.11-4.81,6.24-7.35,9.24-1,1.22-1,2,0,3.18,3.4,3.93,6.72,7.93,10.05,11.91.69.82,1.29,1.71,2,2.63l-7.71,5.94L277.21,38.94l-.62.24V56.93h-10V2.06L275.43,0Z"/><path class="cls-1" d="M380.53,41.13c-.36,1.1-.72,2.21-1.07,3.31-2.88,8.89-9.76,13.69-18.82,13.13-9.64-.6-16.26-6.39-18-15.64a23.54,23.54,0,0,1,2.08-15.11,19.11,19.11,0,0,1,28.76-6.63,18.31,18.31,0,0,1,5.93,9.1c.37,1.1.72,2.21,1.08,3.31Zm-28-3.81c.94,3.23,1.38,6.26,2.68,8.87,2.18,4.35,8.27,4.82,11.52,1.21,4.28-4.75,4.41-15.51.26-20.41-3.21-3.78-8.87-3.57-11.21.8C354.16,30.71,353.53,34.13,352.48,37.32Z"/><path class="cls-1" d="M134.5,57h-10V18.4c4.54-1.37,6.74-.64,8.55,3a18.74,18.74,0,0,1,11.23-4.34c4.29-.25,8.26.46,11,4.5A20.15,20.15,0,0,1,168.76,17c5.35.16,8.87,2.54,10.1,7.73A54.83,54.83,0,0,1,180,35.89c.17,6.92.05,13.85.05,21H169.45c-.07-1.09-.23-2.3-.22-3.5,0-6.94.1-13.88.13-20.82a13.12,13.12,0,0,0-.32-2.72c-.73-3.24-1.92-4.16-5.26-4.16-5.88,0-6.51.63-6.51,6.38V56.94H146.64c0-2.76,0-5.41,0-8,0-5.85.25-11.7.05-17.54-.13-4-2.43-5.77-6.48-5.56-5.41.27-5.4.27-5.41,5.56q0,12.42-.05,24.83A3.67,3.67,0,0,1,134.5,57Z"/><path class="cls-1" d="M107.08,54.35c-3.35,1.2-6.6,2.82-10,3.5-8.81,1.73-14.72-2.69-15.61-11.52-.39-3.88-.22-7.82-.24-11.74,0-5.41,0-10.83,0-16.42H91.52c.12,1.37.35,2.75.34,4.14,0,5-.18,10-.2,15A54.92,54.92,0,0,0,92,44.82c.39,2.86,2,4.19,4.94,4.42a14.91,14.91,0,0,0,3.27-.09c4-.54,4.59-1.27,4.6-5.21,0-6.94,0-13.87,0-20.8,0-1.58.18-3.16.28-4.94h10V56.75C109.51,57.89,108.18,57.41,107.08,54.35Z"/><path class="cls-1" d="M249.06,33.1c1-3.45-.44-6.1-3.87-7-3.65-1-7.16-.16-10.65.86-.89.26-1.75.58-2.88.95L229,21.22c6.42-3.86,13.06-5.38,20.21-3.61a12.24,12.24,0,0,1,9.54,11c.38,4.48.27,9,.32,13.5,0,4.84,0,9.67,0,14.4-4.93,1.42-7.08.81-8.49-2.48-1.45.76-2.92,1.48-4.34,2.27a15.47,15.47,0,0,1-9.76,1.73c-4.47-.58-7.77-3-8.93-7.38-2.26-8.52.61-15.66,11.48-17C242.32,33.26,245.69,33.28,249.06,33.1Zm.63,10.45c-.46-1.29-.55-3.27-1.44-3.73-2.74-1.4-9.11.49-11.17,2.84-1.8,2.06-1.56,5.6.7,6.79,3.32,1.75,6.46.31,9.61-.92C249.89,47.54,249.19,45.5,249.69,43.55Z"/><path class="cls-1" d="M73.76,57.5c-3.15-1.5-7.24,2-8.26-3-3,1.09-5.79,2.48-8.77,3.14-8.39,1.86-14-1.67-15.12-9.22C40.34,40,45,34.26,53.65,33.69c3.26-.22,6.55,0,9.69,0,1.44-3.89,0-7.08-3.65-7.46-3.42-.35-6.95.34-10.42.68a15.22,15.22,0,0,0-2.94.92c-.37-.85-.7-1.61-1-2.37C43.53,21,43.54,21,48.07,18.92a25,25,0,0,1,14.57-1.67c5.5.85,8.81,4.29,10.06,9.59a33.68,33.68,0,0,1,1,7.18C73.84,41.6,73.76,49.18,73.76,57.5Zm-9.7-13.64a14.73,14.73,0,0,0,0-2.74c-.1-.52-.63-1.33-1-1.38-3.93-.47-7.74-.18-10.87,2.61a4.25,4.25,0,0,0-1.22,5,3.92,3.92,0,0,0,4.25,2.82,21.29,21.29,0,0,0,5.14-.95C64,48,64.08,47.69,64.06,43.86Z"/><path class="cls-1" d="M336.38,56.88c-6.39.68-6.65.6-7.76-2.4-2.94,1.08-5.8,2.49-8.83,3.16-8.26,1.83-14-1.77-15-9.06-1.19-8.66,3.17-14.22,11.82-14.89,2.93-.23,5.88-.23,8.83-.21,1.45,0,1.92-.59,1.88-1.94A5.45,5.45,0,0,0,322.75,26c-4.11-1-8,0-11.83,1.39-.4.14-.8.24-1.42.43-.74-1.76-1.59-3.47-2.15-5.27a2.24,2.24,0,0,1,.78-1.92,23,23,0,0,1,20.75-2.43c5,1.76,7.18,6.24,7.39,11.06C336.66,38.43,336.38,47.59,336.38,56.88Zm-8.84-13.26c-.45-1.31-.51-3.31-1.4-3.79-2.74-1.47-9.33.52-11.34,3-1.66,2-1.39,5.42.77,6.6,3.32,1.82,6.45.33,9.6-.87C327.68,47.59,327.09,45.57,327.54,43.62Z"/></g></g></svg>