<?xml version="1.0" encoding="utf-8"?>
<svg viewBox="20.341 20.839 650.922 157.474" width="650.922" height="157.474" xmlns="http://www.w3.org/2000/svg">
  <g>
    <polygon style="fill: rgb(255, 255, 255);" points="20.341 20.839 20.978 178.313 136.357 178.313 136.357 146.846 52.445 146.846 52.445 52.445 136.357 52.445 136.357 20.978"/>
    <polygon style="fill: rgb(236, 82, 66);" points="157.931 21.23 157.335 178.313 272.714 178.313 272.714 94.401 209.78 94.401 209.78 125.868 241.247 125.868 241.247 146.846 188.802 146.846 188.802 52.445 272.714 52.445 272.714 20.978"/>
    <polygon style="fill: rgb(255, 255, 255);" points="295.618 20.839 296.255 178.313 411.634 178.313 411.634 146.846 327.722 146.846 327.722 52.445 411.634 52.445 411.634 20.978"/>
    <path d="M 451.90765380859375 32.74461669921875 Q 451.59520263671874 35.41781005859375 449.93458251953126 36.87012939453125 Q 448.2739624023437 38.32244873046875 445.51976318359374 38.32244873046875 Q 442.53411865234375 38.32244873046875 440.73463134765626 36.18157958984375 Q 438.9351440429688 34.04071044921875 438.9351440429688 30.45330810546875 L 438.9351440429688 28.83319091796875 Q 438.9351440429688 26.48402099609375 439.7741333007813 24.701892089843753 Q 440.6131225585938 22.91976318359375 442.15223388671876 21.96505126953125 Q 443.69134521484375 21.01033935546875 445.71649169921875 21.01033935546875 Q 448.40125732421876 21.01033935546875 450.02137451171876 22.50894775390625 Q 451.64149169921876 24.007556152343753 451.90765380859375 26.65760498046875 L 449.67420654296876 26.65760498046875 Q 449.38489990234376 24.644030761718753 448.4186157226562 23.74139404296875 Q 447.45233154296875 22.83875732421875 445.71649169921875 22.83875732421875 Q 443.5871948242187 22.83875732421875 442.3778930664063 24.412585449218753 Q 441.16859130859376 25.98641357421875 441.16859130859376 28.89105224609375 L 441.16859130859376 30.52274169921875 Q 441.16859130859376 33.26536865234375 442.3142456054687 34.88548583984375 Q 443.45989990234375 36.50560302734375 445.51976318359374 36.50560302734375 Q 447.37132568359374 36.50560302734375 448.3607543945312 35.66661376953125 Q 449.3501831054688 34.82762451171875 449.67420654296876 32.74461669921875 Z M 454.03534545898435 31.71468505859375 Q 454.03534545898435 29.87469482421875 454.75861206054685 28.405017089843753 Q 455.48187866210935 26.93533935546875 456.7721862792969 26.13685302734375 Q 458.0624938964844 25.338366699218753 459.7173278808594 25.338366699218753 Q 462.27479858398436 25.338366699218753 463.8544128417969 27.10892333984375 Q 465.43402709960935 28.87947998046875 465.43402709960935 31.81883544921875 L 465.43402709960935 31.96927490234375 Q 465.43402709960935 33.79769287109375 464.73390502929686 35.25001220703125 Q 464.0337829589844 36.70233154296875 462.7319030761719 37.51239013671875 Q 461.4300231933594 38.32244873046875 459.7404724121094 38.32244873046875 Q 457.1945739746094 38.32244873046875 455.6149597167969 36.55189208984375 Q 454.03534545898435 34.78133544921875 454.03534545898435 31.86512451171875 Z M 456.1877868652344 31.96927490234375 Q 456.1877868652344 34.05228271484375 457.15407104492186 35.31365966796875 Q 458.1203552246094 36.57503662109375 459.7404724121094 36.57503662109375 Q 461.3721618652344 36.57503662109375 462.33265991210936 35.29630126953125 Q 463.29315795898435 34.01756591796875 463.29315795898435 31.71468505859375 Q 463.29315795898435 29.65482177734375 462.3153015136719 28.376086425781253 Q 461.3374450683594 27.09735107421875 459.7173278808594 27.09735107421875 Q 458.1319274902344 27.09735107421875 457.15985717773435 28.35872802734375 Q 456.1877868652344 29.620104980468753 456.1877868652344 31.96927490234375 Z M 470.1295104980469 25.569812011718753 L 470.1873718261719 26.958483886718753 Q 471.56447143554686 25.338366699218753 473.9020690917969 25.338366699218753 Q 476.5289733886719 25.338366699218753 477.4778991699219 27.35194091796875 Q 478.10280151367186 26.44930419921875 479.1038024902344 25.89383544921875 Q 480.10480346679685 25.338366699218753 481.4703308105469 25.338366699218753 Q 485.5900573730469 25.338366699218753 485.65949096679685 29.70111083984375 L 485.65949096679685 38.09100341796875 L 483.51862182617185 38.09100341796875 L 483.51862182617185 29.82840576171875 Q 483.51862182617185 28.48602294921875 482.90529174804686 27.82061767578125 Q 482.2919616699219 27.15521240234375 480.8454284667969 27.15521240234375 Q 479.6534851074219 27.15521240234375 478.8665710449219 27.86690673828125 Q 478.07965698242185 28.578601074218753 477.9523620605469 29.78211669921875 L 477.9523620605469 38.09100341796875 L 475.7999206542969 38.09100341796875 L 475.7999206542969 29.88626708984375 Q 475.7999206542969 27.15521240234375 473.12672729492186 27.15521240234375 Q 471.02057495117185 27.15521240234375 470.2452331542969 28.94891357421875 L 470.2452331542969 38.09100341796875 L 468.1043640136719 38.09100341796875 L 468.1043640136719 25.569812011718753 Z M 499.4662719726563 31.96927490234375 Q 499.4662719726563 34.82762451171875 498.1586059570312 36.57503662109375 Q 496.85093994140624 38.32244873046875 494.61749267578125 38.32244873046875 Q 492.33775634765624 38.32244873046875 491.03009033203125 36.87591552734375 L 491.03009033203125 42.90506591796875 L 488.88922119140625 42.90506591796875 L 488.88922119140625 25.569812011718753 L 490.8449340820313 25.569812011718753 L 490.94908447265624 26.958483886718753 Q 492.2567504882812 25.338366699218753 494.58277587890626 25.338366699218753 Q 496.83936767578126 25.338366699218753 498.15281982421874 27.03948974609375 Q 499.4662719726563 28.74061279296875 499.4662719726563 31.77254638671875 Z M 497.3254028320313 31.72625732421875 Q 497.3254028320313 29.60853271484375 496.4227661132812 28.38187255859375 Q 495.52012939453124 27.15521240234375 493.94630126953126 27.15521240234375 Q 492.0021606445313 27.15521240234375 491.03009033203125 28.87947998046875 L 491.03009033203125 34.86234130859375 Q 491.99058837890624 36.57503662109375 493.9694458007813 36.57503662109375 Q 495.50855712890626 36.57503662109375 496.41697998046874 35.35416259765625 Q 497.3254028320313 34.13328857421875 497.3254028320313 31.72625732421875 Z M 509.9184143066406 36.85277099609375 Q 508.6686096191406 38.32244873046875 506.2500061035156 38.32244873046875 Q 504.2480041503906 38.32244873046875 503.2007141113281 37.15943603515625 Q 502.15342407226564 35.99642333984375 502.1418518066406 33.71668701171875 L 502.1418518066406 25.569812011718753 L 504.2827209472656 25.569812011718753 L 504.2827209472656 33.65882568359375 Q 504.2827209472656 36.50560302734375 506.5971740722656 36.50560302734375 Q 509.0504943847656 36.50560302734375 509.8605529785156 34.67718505859375 L 509.8605529785156 25.569812011718753 L 512.0014221191407 25.569812011718753 L 512.0014221191407 38.09100341796875 L 509.96470336914064 38.09100341796875 Z M 518.1560424804687 22.53787841796875 L 518.1560424804687 25.569812011718753 L 520.4936401367188 25.569812011718753 L 520.4936401367188 27.22464599609375 L 518.1560424804687 27.22464599609375 L 518.1560424804687 34.98963623046875 Q 518.1560424804687 35.74183349609375 518.4684936523438 36.11793212890625 Q 518.7809448242188 36.49403076171875 519.5331420898438 36.49403076171875 Q 519.9034545898437 36.49403076171875 520.5515014648438 36.35516357421875 L 520.5515014648438 38.09100341796875 Q 519.7067260742188 38.32244873046875 518.9082397460937 38.32244873046875 Q 517.4732788085937 38.32244873046875 516.7442260742188 37.45452880859375 Q 516.0151733398437 36.58660888671875 516.0151733398437 34.98963623046875 L 516.0151733398437 27.22464599609375 L 513.7354370117188 27.22464599609375 L 513.7354370117188 25.569812011718753 L 516.0151733398437 25.569812011718753 L 516.0151733398437 22.53787841796875 Z M 528.1867919921875 38.32244873046875 Q 525.6408935546875 38.32244873046875 524.0439208984375 36.65025634765625 Q 522.4469482421875 34.97806396484375 522.4469482421875 32.17757568359375 L 522.4469482421875 31.78411865234375 Q 522.4469482421875 29.92098388671875 523.158642578125 28.45709228515625 Q 523.8703369140625 26.99320068359375 525.149072265625 26.16578369140625 Q 526.4278076171875 25.338366699218753 527.9206298828125 25.338366699218753 Q 530.3623779296875 25.338366699218753 531.7163330078125 26.94691162109375 Q 533.0702880859375 28.55545654296875 533.0702880859375 31.55267333984375 L 533.0702880859375 32.44373779296875 L 524.5878173828125 32.44373779296875 Q 524.6341064453125 34.29530029296875 525.66982421875 35.43516845703125 Q 526.7055419921875 36.57503662109375 528.3025146484375 36.57503662109375 Q 529.4365966796875 36.57503662109375 530.2235107421875 36.11214599609375 Q 531.0104248046875 35.64925537109375 531.6006103515625 34.88548583984375 L 532.9082763671875 35.90384521484375 Q 531.3344482421875 38.32244873046875 528.1867919921875 38.32244873046875 Z M 527.9206298828125 27.09735107421875 Q 526.6245361328125 27.09735107421875 525.7450439453125 28.04049072265625 Q 524.8655517578125 28.983630371093753 524.6572509765625 30.68475341796875 L 530.9294189453125 30.68475341796875 L 530.9294189453125 30.52274169921875 Q 530.8368408203125 28.89105224609375 530.0499267578125 27.99420166015625 Q 529.2630126953125 27.09735107421875 527.9206298828125 27.09735107421875 Z M 541.6014282226563 27.49080810546875 Q 541.1153930664062 27.40980224609375 540.5483520507812 27.40980224609375 Q 538.4421997070312 27.40980224609375 537.6900024414062 29.20350341796875 L 537.6900024414062 38.09100341796875 L 535.5491333007812 38.09100341796875 L 535.5491333007812 25.569812011718753 L 537.6321411132812 25.569812011718753 L 537.6668579101563 27.016345214843753 Q 538.7199340820313 25.338366699218753 540.6525024414062 25.338366699218753 Q 541.2774047851562 25.338366699218753 541.6014282226563 25.50037841796875 Z" transform="matrix(1.9063489437103271, 0, 0, 1.849942922592163, -404.0892028808594, -7.852734088897705)" style="white-space: pre; fill: rgb(255, 255, 255);"/>
    <path d="M 454.99590454101565 86.26470336914062 Q 454.1395568847656 87.49136352539062 452.6062316894531 88.09890747070312 Q 451.0729064941406 88.70645141601562 449.03618774414065 88.70645141601562 Q 446.9763244628906 88.70645141601562 445.3793518066406 87.74016723632812 Q 443.7823791503906 86.77388305664063 442.90867309570314 84.99175415039062 Q 442.03496704101565 83.20962524414062 442.01182250976564 80.86045532226562 L 442.01182250976564 79.39077758789062 Q 442.01182250976564 75.58350219726563 443.7881652832031 73.48892211914062 Q 445.56450805664065 71.39434204101562 448.78159790039064 71.39434204101562 Q 451.4200744628906 71.39434204101562 453.02861938476565 72.74251098632813 Q 454.6371643066406 74.09067993164062 454.99590454101565 76.56714477539063 L 452.77402954101564 76.56714477539063 Q 452.1491271972656 73.22276000976562 448.7931701660156 73.22276000976562 Q 446.5597229003906 73.22276000976562 445.4082824707031 74.79080200195312 Q 444.2568420410156 76.35884399414063 444.2452697753906 79.33291625976562 L 444.2452697753906 80.71001586914062 Q 444.2452697753906 83.54522094726562 445.54136352539064 85.21741333007813 Q 446.83745727539065 86.88960571289063 449.0477600097656 86.88960571289063 Q 450.2975646972656 86.88960571289063 451.23491821289065 86.61187133789062 Q 452.1722717285156 86.33413696289062 452.7856018066406 85.67451782226563 L 452.7856018066406 81.89038696289063 L 448.8857482910156 81.89038696289063 L 448.8857482910156 80.08511352539062 L 454.99590454101565 80.08511352539062 Z M 464.4147521972656 77.87481079101562 Q 463.9287170410156 77.79380493164062 463.36167602539064 77.79380493164062 Q 461.2555236816406 77.79380493164062 460.5033264160156 79.58750610351562 L 460.5033264160156 88.47500610351562 L 458.3624572753906 88.47500610351562 L 458.3624572753906 75.95381469726563 L 460.4454650878906 75.95381469726563 L 460.4801818847656 77.40034790039063 Q 461.53325805664065 75.72236938476563 463.4658264160156 75.72236938476563 Q 464.0907287597656 75.72236938476563 464.4147521972656 75.88438110351562 Z M 473.64769287109374 88.47500610351562 Q 473.46253662109376 88.10469360351563 473.34681396484376 87.15576782226563 Q 471.85399169921874 88.70645141601562 469.7825561523438 88.70645141601562 Q 467.9309936523438 88.70645141601562 466.7448364257813 87.65916137695312 Q 465.5586791992188 86.61187133789062 465.5586791992188 85.00332641601562 Q 465.5586791992188 83.04761352539063 467.04571533203125 81.96560668945312 Q 468.5327514648437 80.88359985351562 471.2290893554688 80.88359985351562 L 473.3120971679688 80.88359985351562 L 473.3120971679688 79.89995727539062 Q 473.3120971679688 78.77744750976562 472.6409057617187 78.11204223632812 Q 471.96971435546874 77.44663696289062 470.66204833984375 77.44663696289062 Q 469.5163940429687 77.44663696289062 468.7410522460938 78.02525024414062 Q 467.96571044921876 78.60386352539062 467.96571044921876 79.42549438476563 L 465.8132690429687 79.42549438476563 Q 465.8132690429687 78.48814086914062 466.4786743164062 77.61443481445312 Q 467.1440795898437 76.74072875976563 468.28394775390626 76.23154907226562 Q 469.42381591796874 75.72236938476563 470.7893432617187 75.72236938476563 Q 472.95335693359374 75.72236938476563 474.1800170898438 76.80437622070312 Q 475.40667724609375 77.88638305664062 475.4529663085938 79.78423461914062 L 475.4529663085938 85.54722290039062 Q 475.4529663085938 87.27149047851563 475.89271240234376 88.28984985351562 L 475.89271240234376 88.47500610351562 Z M 470.0950073242187 86.84331665039062 Q 471.10179443359374 86.84331665039062 472.0044311523437 86.32256469726562 Q 472.9070678710938 85.80181274414062 473.3120971679688 84.96860961914062 L 473.3120971679688 82.39956665039062 L 471.6341186523438 82.39956665039062 Q 467.6995483398438 82.39956665039062 467.6995483398438 84.70244750976562 Q 467.6995483398438 85.70923461914063 468.37073974609376 86.27627563476562 Q 469.04193115234375 86.84331665039062 470.0950073242187 86.84331665039062 Z M 489.3853698730469 82.35327758789063 Q 489.3853698730469 85.21162719726563 488.07770385742185 86.95903930664062 Q 486.77003784179686 88.70645141601562 484.5365905761719 88.70645141601562 Q 482.25685424804686 88.70645141601562 480.9491882324219 87.25991821289062 L 480.9491882324219 93.28906860351563 L 478.8083190917969 93.28906860351563 L 478.8083190917969 75.95381469726563 L 480.7640319824219 75.95381469726563 L 480.86818237304686 77.34248657226563 Q 482.17584838867185 75.72236938476563 484.5018737792969 75.72236938476563 Q 486.7584655761719 75.72236938476563 488.07191772460936 77.42349243164062 Q 489.3853698730469 79.12461547851562 489.3853698730469 82.15654907226562 Z M 487.2445007324219 82.11026000976562 Q 487.2445007324219 79.99253540039062 486.34186401367185 78.76587524414063 Q 485.43922729492186 77.53921508789062 483.8653991699219 77.53921508789062 Q 481.9212585449219 77.53921508789062 480.9491882324219 79.26348266601562 L 480.9491882324219 85.24634399414063 Q 481.90968627929686 86.95903930664062 483.8885437011719 86.95903930664062 Q 485.4276550292969 86.95903930664062 486.33607788085936 85.73816528320313 Q 487.2445007324219 84.51729125976563 487.2445007324219 82.11026000976562 Z M 494.2475280761719 77.46978149414062 Q 495.67091674804686 75.72236938476563 497.9506530761719 75.72236938476563 Q 501.91994018554686 75.72236938476563 501.95465698242185 80.20083618164062 L 501.95465698242185 88.47500610351562 L 499.81378784179685 88.47500610351562 L 499.81378784179685 80.18926391601562 Q 499.8022155761719 78.83530883789062 499.1946716308594 78.18726196289063 Q 498.5871276855469 77.53921508789062 497.3026062011719 77.53921508789062 Q 496.2611022949219 77.53921508789062 495.47418823242185 78.09468383789063 Q 494.68727416992186 78.65015258789063 494.2475280761719 79.55278930664062 L 494.2475280761719 88.47500610351562 L 492.1066589355469 88.47500610351562 L 492.1066589355469 70.70000610351562 L 494.2475280761719 70.70000610351562 Z M 507.4857543945312 88.47500610351562 L 505.3448852539062 88.47500610351562 L 505.3448852539062 75.95381469726563 L 507.4857543945312 75.95381469726563 Z M 505.1713012695312 72.63257446289063 Q 505.1713012695312 72.11182250976563 505.4895385742187 71.75308227539062 Q 505.8077758789062 71.39434204101562 506.43267822265625 71.39434204101562 Q 507.0575805664063 71.39434204101562 507.38160400390626 71.75308227539062 Q 507.70562744140625 72.11182250976563 507.70562744140625 72.63257446289063 Q 507.70562744140625 73.15332641601563 507.38160400390626 73.50049438476563 Q 507.0575805664063 73.84766235351563 506.43267822265625 73.84766235351563 Q 505.8077758789062 73.84766235351563 505.4895385742187 73.50049438476563 Q 505.1713012695312 73.15332641601563 505.1713012695312 72.63257446289063 Z M 515.9333740234375 86.95903930664062 Q 517.0790283203125 86.95903930664062 517.9353759765625 86.26470336914062 Q 518.7917236328125 85.57036743164062 518.8843017578125 84.52886352539062 L 520.9094482421875 84.52886352539062 Q 520.8515869140625 85.60508422851562 520.1688232421875 86.57715454101563 Q 519.4860595703125 87.54922485351562 518.34619140625 88.12783813476562 Q 517.2063232421875 88.70645141601562 515.9333740234375 88.70645141601562 Q 513.3759033203125 88.70645141601562 511.86572265625 86.99954223632812 Q 510.3555419921875 85.29263305664062 510.3555419921875 82.33013305664062 L 510.3555419921875 81.97139282226563 Q 510.3555419921875 80.14297485351562 511.0267333984375 78.71958618164062 Q 511.6979248046875 77.29619750976562 512.953515625 76.50928344726563 Q 514.2091064453125 75.72236938476563 515.9218017578125 75.72236938476563 Q 518.0279541015625 75.72236938476563 519.422412109375 76.98374633789062 Q 520.8168701171875 78.24512329101563 520.9094482421875 80.25869750976562 L 518.8843017578125 80.25869750976562 Q 518.7917236328125 79.04360961914062 517.964306640625 78.26248168945312 Q 517.1368896484375 77.48135375976562 515.9218017578125 77.48135375976562 Q 514.2901123046875 77.48135375976562 513.39326171875 78.65593872070312 Q 512.4964111328125 79.83052368164063 512.4964111328125 82.05239868164062 L 512.4964111328125 82.45742797851562 Q 512.4964111328125 84.62144165039062 513.3874755859375 85.79024047851563 Q 514.2785400390625 86.95903930664062 515.9333740234375 86.95903930664062 Z M 530.6058959960938 85.15376586914063 Q 530.6058959960938 84.28584594726563 529.9520629882812 83.80559692382812 Q 529.2982299804687 83.32534790039062 527.6723266601563 82.97817993164062 Q 526.0464233398437 82.63101196289062 525.0917114257812 82.14497680664063 Q 524.1369995117187 81.65894165039063 523.6798950195313 80.98775024414063 Q 523.2227905273437 80.31655883789062 523.2227905273437 79.39077758789062 Q 523.2227905273437 77.85166625976562 524.5246704101562 76.78701782226562 Q 525.8265502929687 75.72236938476563 527.8516967773437 75.72236938476563 Q 529.9809936523437 75.72236938476563 531.3060180664063 76.82173461914063 Q 532.6310424804688 77.92109985351563 532.6310424804688 79.63379516601563 L 530.4786010742188 79.63379516601563 Q 530.4786010742188 78.75430297851562 529.7321899414062 78.11782836914062 Q 528.9857788085938 77.48135375976562 527.8516967773437 77.48135375976562 Q 526.6828979492187 77.48135375976562 526.0232788085938 77.99053344726562 Q 525.3636596679687 78.49971313476563 525.3636596679687 79.32134399414062 Q 525.3636596679687 80.09668579101563 525.9769897460938 80.49014282226562 Q 526.5903198242188 80.88359985351562 528.1930786132813 81.24234008789062 Q 529.7958374023438 81.60108032226563 530.7910522460937 82.09868774414062 Q 531.7862670898437 82.59629516601562 532.2665161132812 83.29641723632812 Q 532.7467651367188 83.99653930664063 532.7467651367188 85.00332641601562 Q 532.7467651367188 86.68130493164062 531.4043823242188 87.69387817382812 Q 530.0619995117188 88.70645141601562 527.9211303710938 88.70645141601562 Q 526.4167358398438 88.70645141601562 525.2595092773438 88.17412719726562 Q 524.1022827148438 87.64180297851563 523.4484497070313 86.68709106445313 Q 522.7946166992188 85.73237915039063 522.7946166992188 84.62144165039062 L 524.9354858398438 84.62144165039062 Q 524.9933471679688 85.69766235351562 525.7976196289062 86.32835083007812 Q 526.6018920898438 86.95903930664062 527.9211303710938 86.95903930664062 Q 529.1362182617188 86.95903930664062 529.8710571289063 86.46721801757812 Q 530.6058959960938 85.97539672851562 530.6058959960938 85.15376586914063 Z" transform="matrix(2.137834072113037, 0, 0, 1.8487401008605957, -511.88043212890625, -48.54553985595703)" style="fill: rgb(236, 82, 66); white-space: pre;"/>
    <path transform="matrix(2.137834072113037, 0, 0, 1.8487401008605957, -511.88043212890625, -48.54553985595703)" style="fill: rgb(236, 82, 66); white-space: pre;"/>
    <path d="M 454.94964599609375 83.12861938476563 Q 454.63719482421874 85.80181274414062 452.97657470703126 87.25413208007812 Q 451.3159545898437 88.70645141601562 448.56175537109374 88.70645141601562 Q 445.57611083984375 88.70645141601562 443.77662353515626 86.56558227539062 Q 441.9771362304688 84.42471313476562 441.9771362304688 80.83731079101562 L 441.9771362304688 79.21719360351562 Q 441.9771362304688 76.86802368164062 442.8161254882813 75.08589477539063 Q 443.6551147460938 73.30376586914062 445.19422607421876 72.34905395507812 Q 446.73333740234375 71.39434204101562 448.75848388671875 71.39434204101562 Q 451.44324951171876 71.39434204101562 453.06336669921876 72.89295043945313 Q 454.68348388671876 74.39155883789063 454.94964599609375 77.04160766601562 L 452.71619873046876 77.04160766601562 Q 452.42689208984376 75.02803344726563 451.4606079101562 74.12539672851562 Q 450.49432373046875 73.22276000976562 448.75848388671875 73.22276000976562 Q 446.6291870117187 73.22276000976562 445.4198852539063 74.79658813476563 Q 444.21058349609376 76.37041625976562 444.21058349609376 79.27505493164062 L 444.21058349609376 80.90674438476563 Q 444.21058349609376 83.64937133789063 445.3562377929687 85.26948852539063 Q 446.50189208984375 86.88960571289063 448.56175537109374 86.88960571289063 Q 450.41331787109374 86.88960571289063 451.4027465820312 86.05061645507813 Q 452.3921752929688 85.21162719726563 452.71619873046876 83.12861938476563 Z M 457.0757202148437 82.09868774414062 Q 457.0757202148437 80.25869750976562 457.7989868164062 78.78901977539063 Q 458.5222534179687 77.31934204101563 459.81256103515625 76.52085571289062 Q 461.1028686523438 75.72236938476563 462.75770263671876 75.72236938476563 Q 465.31517333984374 75.72236938476563 466.89478759765626 77.49292602539063 Q 468.4744018554687 79.26348266601562 468.4744018554687 82.20283813476563 L 468.4744018554687 82.35327758789063 Q 468.4744018554687 84.18169555664062 467.77427978515624 85.63401489257812 Q 467.07415771484375 87.08633422851562 465.77227783203125 87.89639282226562 Q 464.47039794921875 88.70645141601562 462.7808471679688 88.70645141601562 Q 460.2349487304688 88.70645141601562 458.65533447265625 86.93589477539062 Q 457.0757202148437 85.16533813476562 457.0757202148437 82.24912719726562 Z M 459.22816162109376 82.35327758789063 Q 459.22816162109376 84.43628540039063 460.19444580078124 85.69766235351562 Q 461.1607299804688 86.95903930664062 462.7808471679688 86.95903930664062 Q 464.41253662109375 86.95903930664062 465.37303466796874 85.68030395507813 Q 466.3335327148437 84.40156860351563 466.3335327148437 82.09868774414062 Q 466.3335327148437 80.03882446289063 465.3556762695313 78.76008911132813 Q 464.37781982421876 77.48135375976562 462.75770263671876 77.48135375976562 Q 461.17230224609375 77.48135375976562 460.2002319335937 78.74273071289062 Q 459.22816162109376 80.00410766601563 459.22816162109376 82.35327758789063 Z M 473.18072509765625 75.95381469726563 L 473.2501586914062 77.52764282226562 Q 474.68511962890625 75.72236938476563 476.99957275390625 75.72236938476563 Q 480.96885986328124 75.72236938476563 481.0035766601562 80.20083618164062 L 481.0035766601562 88.47500610351562 L 478.8627075195312 88.47500610351562 L 478.8627075195312 80.18926391601562 Q 478.85113525390625 78.83530883789062 478.24359130859375 78.18726196289063 Q 477.63604736328125 77.53921508789062 476.3515258789063 77.53921508789062 Q 475.3100219726563 77.53921508789062 474.5231079101562 78.09468383789063 Q 473.73619384765624 78.65015258789063 473.29644775390625 79.55278930664062 L 473.29644775390625 88.47500610351562 L 471.15557861328125 88.47500610351562 L 471.15557861328125 75.95381469726563 Z M 485.2851623535156 88.47500610351562 L 485.2851623535156 77.60864868164063 L 483.3063049316406 77.60864868164063 L 483.3063049316406 75.95381469726563 L 485.2851623535156 75.95381469726563 L 485.2851623535156 74.66929321289062 Q 485.2851623535156 72.65571899414063 486.36138305664065 71.55635375976563 Q 487.43760375976564 70.45698852539063 489.40488891601564 70.45698852539063 Q 490.1455139160156 70.45698852539063 490.87456665039065 70.65371704101562 L 490.75884399414065 72.38955688476562 Q 490.21494750976564 72.28540649414063 489.60161743164065 72.28540649414063 Q 488.56011352539065 72.28540649414063 487.9930725097656 72.89295043945313 Q 487.4260314941406 73.50049438476563 487.4260314941406 74.63457641601562 L 487.4260314941406 75.95381469726563 L 490.09922485351564 75.95381469726563 L 490.09922485351564 77.60864868164063 L 487.4260314941406 77.60864868164063 L 487.4260314941406 88.47500610351562 Z M 497.3760009765625 88.70645141601562 Q 494.8301025390625 88.70645141601562 493.2331298828125 87.03425903320313 Q 491.6361572265625 85.36206665039063 491.6361572265625 82.56157836914062 L 491.6361572265625 82.16812133789062 Q 491.6361572265625 80.30498657226562 492.3478515625 78.84109497070312 Q 493.0595458984375 77.37720336914063 494.33828125 76.54978637695312 Q 495.6170166015625 75.72236938476563 497.1098388671875 75.72236938476563 Q 499.5515869140625 75.72236938476563 500.9055419921875 77.33091430664062 Q 502.2594970703125 78.93945922851563 502.2594970703125 81.93667602539062 L 502.2594970703125 82.82774047851562 L 493.7770263671875 82.82774047851562 Q 493.8233154296875 84.67930297851562 494.859033203125 85.81917114257813 Q 495.8947509765625 86.95903930664062 497.4917236328125 86.95903930664062 Q 498.6258056640625 86.95903930664062 499.4127197265625 86.49614868164062 Q 500.1996337890625 86.03325805664062 500.7898193359375 85.26948852539063 L 502.0974853515625 86.28784790039063 Q 500.5236572265625 88.70645141601562 497.3760009765625 88.70645141601562 Z M 497.1098388671875 77.48135375976562 Q 495.8137451171875 77.48135375976562 494.9342529296875 78.42449340820312 Q 494.0547607421875 79.36763305664063 493.8464599609375 81.06875610351562 L 500.1186279296875 81.06875610351562 L 500.1186279296875 80.90674438476563 Q 500.0260498046875 79.27505493164062 499.2391357421875 78.37820434570312 Q 498.4522216796875 77.48135375976562 497.1098388671875 77.48135375976562 Z M 510.7902404785156 77.87481079101562 Q 510.3042053222656 77.79380493164062 509.73716430664064 77.79380493164062 Q 507.6310119628906 77.79380493164062 506.8788146972656 79.58750610351562 L 506.8788146972656 88.47500610351562 L 504.7379455566406 88.47500610351562 L 504.7379455566406 75.95381469726563 L 506.8209533691406 75.95381469726563 L 506.8556701660156 77.40034790039063 Q 507.90874633789065 75.72236938476563 509.8413146972656 75.72236938476563 Q 510.4662170410156 75.72236938476563 510.7902404785156 75.88438110351562 Z M 517.7295776367188 88.70645141601562 Q 515.1836791992188 88.70645141601562 513.5867065429687 87.03425903320313 Q 511.98973388671874 85.36206665039063 511.98973388671874 82.56157836914062 L 511.98973388671874 82.16812133789062 Q 511.98973388671874 80.30498657226562 512.7014282226562 78.84109497070312 Q 513.4131225585937 77.37720336914063 514.6918579101563 76.54978637695312 Q 515.9705932617187 75.72236938476563 517.4634155273437 75.72236938476563 Q 519.9051635742187 75.72236938476563 521.2591186523438 77.33091430664062 Q 522.6130737304687 78.93945922851563 522.6130737304687 81.93667602539062 L 522.6130737304687 82.82774047851562 L 514.1306030273438 82.82774047851562 Q 514.1768920898437 84.67930297851562 515.2126098632813 85.81917114257813 Q 516.2483276367187 86.95903930664062 517.8453002929688 86.95903930664062 Q 518.9793823242187 86.95903930664062 519.7662963867188 86.49614868164062 Q 520.5532104492188 86.03325805664062 521.1433959960938 85.26948852539063 L 522.4510620117187 86.28784790039063 Q 520.8772338867187 88.70645141601562 517.7295776367188 88.70645141601562 Z M 517.4634155273437 77.48135375976562 Q 516.1673217773438 77.48135375976562 515.2878295898438 78.42449340820312 Q 514.4083374023437 79.36763305664063 514.2000366210938 81.06875610351562 L 520.4722045898437 81.06875610351562 L 520.4722045898437 80.90674438476563 Q 520.3796264648438 79.27505493164062 519.5927124023438 78.37820434570312 Q 518.8057983398437 77.48135375976562 517.4634155273437 77.48135375976562 Z M 527.11669921875 75.95381469726563 L 527.1861328125 77.52764282226562 Q 528.62109375 75.72236938476563 530.935546875 75.72236938476563 Q 534.904833984375 75.72236938476563 534.93955078125 80.20083618164062 L 534.93955078125 88.47500610351562 L 532.798681640625 88.47500610351562 L 532.798681640625 80.18926391601562 Q 532.787109375 78.83530883789062 532.1795654296875 78.18726196289063 Q 531.572021484375 77.53921508789062 530.2875 77.53921508789062 Q 529.24599609375 77.53921508789062 528.45908203125 78.09468383789063 Q 527.67216796875 78.65015258789063 527.232421875 79.55278930664062 L 527.232421875 88.47500610351562 L 525.091552734375 88.47500610351562 L 525.091552734375 75.95381469726563 Z M 543.1863037109375 86.95903930664062 Q 544.3319580078125 86.95903930664062 545.1883056640625 86.26470336914062 Q 546.0446533203125 85.57036743164062 546.1372314453125 84.52886352539062 L 548.1623779296875 84.52886352539062 Q 548.1045166015625 85.60508422851562 547.4217529296875 86.57715454101563 Q 546.7389892578125 87.54922485351562 545.59912109375 88.12783813476562 Q 544.4592529296875 88.70645141601562 543.1863037109375 88.70645141601562 Q 540.6288330078125 88.70645141601562 539.11865234375 86.99954223632812 Q 537.6084716796875 85.29263305664062 537.6084716796875 82.33013305664062 L 537.6084716796875 81.97139282226563 Q 537.6084716796875 80.14297485351562 538.2796630859375 78.71958618164062 Q 538.9508544921875 77.29619750976562 540.2064453125 76.50928344726563 Q 541.4620361328125 75.72236938476563 543.1747314453125 75.72236938476563 Q 545.2808837890625 75.72236938476563 546.675341796875 76.98374633789062 Q 548.0697998046875 78.24512329101563 548.1623779296875 80.25869750976562 L 546.1372314453125 80.25869750976562 Q 546.0446533203125 79.04360961914062 545.217236328125 78.26248168945312 Q 544.3898193359375 77.48135375976562 543.1747314453125 77.48135375976562 Q 541.5430419921875 77.48135375976562 540.64619140625 78.65593872070312 Q 539.7493408203125 79.83052368164063 539.7493408203125 82.05239868164062 L 539.7493408203125 82.45742797851562 Q 539.7493408203125 84.62144165039062 540.6404052734375 85.79024047851563 Q 541.5314697265625 86.95903930664062 543.1863037109375 86.95903930664062 Z M 555.76552734375 88.70645141601562 Q 553.21962890625 88.70645141601562 551.62265625 87.03425903320313 Q 550.02568359375 85.36206665039063 550.02568359375 82.56157836914062 L 550.02568359375 82.16812133789062 Q 550.02568359375 80.30498657226562 550.7373779296875 78.84109497070312 Q 551.449072265625 77.37720336914063 552.7278076171875 76.54978637695312 Q 554.00654296875 75.72236938476563 555.499365234375 75.72236938476563 Q 557.94111328125 75.72236938476563 559.295068359375 77.33091430664062 Q 560.6490234375 78.93945922851563 560.6490234375 81.93667602539062 L 560.6490234375 82.82774047851562 L 552.166552734375 82.82774047851562 Q 552.212841796875 84.67930297851562 553.2485595703125 85.81917114257813 Q 554.28427734375 86.95903930664062 555.88125 86.95903930664062 Q 557.01533203125 86.95903930664062 557.80224609375 86.49614868164062 Q 558.58916015625 86.03325805664062 559.179345703125 85.26948852539063 L 560.48701171875 86.28784790039063 Q 558.91318359375 88.70645141601562 555.76552734375 88.70645141601562 Z M 555.499365234375 77.48135375976562 Q 554.203271484375 77.48135375976562 553.323779296875 78.42449340820312 Q 552.444287109375 79.36763305664063 552.235986328125 81.06875610351562 L 558.508154296875 81.06875610351562 L 558.508154296875 80.90674438476563 Q 558.415576171875 79.27505493164062 557.628662109375 78.37820434570312 Q 556.841748046875 77.48135375976562 555.499365234375 77.48135375976562 Z" transform="matrix(1.9951379299163818, 0, 0, 1.8430180549621582, -449.0084533691406, 4.496470928192139)" style="white-space: pre; fill: rgb(255, 255, 255);"/>
    <path transform="matrix(1.9951379299163818, 0, 0, 1.8430180549621582, -449.0084533691406, 4.496470928192139)" style="fill: rgb(51, 51, 51); white-space: pre;"/>
  </g>
</svg>